# xmcd CD database file
#
# Track frame offsets:
#	150
#	13537
#	29953
#	43159
#	56698
#	65955
#	83858
#	93834
#	103808
#	116443
#	130554
#	143569
#	158697
#	180041
#	191629
#	208962
#	222610
#	231984
#	244820
#	256913
#
# Disc length: 3542 seconds
#
# Revision: 0
# Processed by: cddbd v1.5.2PL0 Copyright (c) Steve Scherf et al.
# Submitted via: CDex 1.51
#
DISCID=230dd414
DTITLE=Various Artist - The Ultimate Collection Country 100 Hits [CD03)
DYEAR=2009
DGENRE=Country
TTITLE0=Little Feat - Willin'
TTITLE1=Flying Burrito Brothers - Hot Burrito #1
TTITLE2=Jimmy Dale and the Flatlanders - Tonight I Think I'm Gonna Go Downtown
TTITLE3=Texas Tornados - (Hey Baby) Que Paso
TTITLE4=George Jones - Honky Tonki'
TTITLE5=Flying Burrito Brothers - Do Right Woman
TTITLE6=Crazy Horse - Dance Dance Dance
TTITLE7=JJ Cale - Cajun Moon
TTITLE8=Jimmy Dale And The Flatliners - Dallas
TTITLE9=Hoyt Axton - Lonesome Road
TTITLE10=Gram Parsons - Strets Of Baltimore
TTITLE11=Nitty Gritty Dirt Band - Fishin' In The Dark
TTITLE12=Gene Clark  - Life's Greatest Fool
TTITLE13=Travis Tritt - Here's A Quarter (Call Somene Who Cares)
TTITLE14=Dillard and Clark - Train Leaves Home This Morning
TTITLE15=Michael Martin Murphey - The Yellow Rose Of Texas
TTITLE16=The Byrds - Ballad Of Easy Rider
TTITLE17=The Dillards - Old Man At The Mill
TTITLE18=Doug Kershaw - Louisana Man
TTITLE19=Emmylou Harris, Alison Krauss and Gillian Welch - Don't Leave Nobody But The Baby
EXTD=YEAR: 2009
EXTT0=
EXTT1=
EXTT2=
EXTT3=
EXTT4=
EXTT5=
EXTT6=
EXTT7=
EXTT8=
EXTT9=
EXTT10=
EXTT11=
EXTT12=
EXTT13=
EXTT14=
EXTT15=
EXTT16=
EXTT17=
EXTT18=
EXTT19=
PLAYORDER=
